<svg xmlns="http://www.w3.org/2000/svg" viewBox="0 0 96 96">
  <defs>
    <linearGradient id="stem" x1="0" y1="0" x2="1" y2="1">
      <stop offset="0" stop-color="#6f9b57"/>
      <stop offset="1" stop-color="#3f6f3e"/>
    </linearGradient>
    <linearGradient id="petal" x1="0" y1="0" x2="1" y2="1">
      <stop offset="0" stop-color="#b999e8"/>
      <stop offset="1" stop-color="#7654b7"/>
    </linearGradient>
  </defs>
  <path d="M48 82C47 65 49 48 52 27" fill="none" stroke="url(#stem)" stroke-width="5" stroke-linecap="round"/>
  <path d="M47 67C36 63 31 56 28 49" fill="none" stroke="url(#stem)" stroke-width="4" stroke-linecap="round"/>
  <path d="M48 73C59 69 65 62 69 54" fill="none" stroke="url(#stem)" stroke-width="4" stroke-linecap="round"/>
  <ellipse cx="49" cy="22" rx="8" ry="11" fill="url(#petal)" transform="rotate(8 49 22)"/>
  <ellipse cx="39" cy="31" rx="8" ry="11" fill="url(#petal)" transform="rotate(-35 39 31)"/>
  <ellipse cx="57" cy="34" rx="8" ry="11" fill="url(#petal)" transform="rotate(34 57 34)"/>
  <ellipse cx="36" cy="43" rx="7" ry="10" fill="url(#petal)" transform="rotate(-46 36 43)"/>
  <ellipse cx="58" cy="47" rx="7" ry="10" fill="url(#petal)" transform="rotate(43 58 47)"/>
  <ellipse cx="43" cy="54" rx="7" ry="10" fill="url(#petal)" transform="rotate(-22 43 54)"/>
  <path d="M30 51C37 52 42 56 46 62C38 63 32 59 30 51Z" fill="#78a65e"/>
  <path d="M68 55C61 56 56 61 51 67C60 68 66 63 68 55Z" fill="#78a65e"/>
</svg>